# xmcd
#
# Track frame offsets:
#	150
#	19754
#	34602
#	50047
#	65692
#	76437
#	94179
#	118830
#	135414
#	150802
#	166249
#	180745
#	192549
#	206098
#	232353
#	245577
#	265381
#
# Disc length: 3688 seconds
#
# Revision: 1
# Processed by: cddbd v1.5.2PL0 Copyright (c) Steve Scherf et al.
# Submitted via: audiograbber 1.83.01
#
DISCID=f30e6611
DTITLE=Flo - Sad but sweet
DYEAR=2010
DGENRE=Rock
TTITLE0=Flo - Scarlet red
TTITLE1=Flo - One two deja vu
TTITLE2=Flo - Why not me
TTITLE3=Flo - Nobody's home
TTITLE4=Flo - Country blues
TTITLE5=Flo - Grand av. Blues
TTITLE6=Flo - Silent house
TTITLE7=Flo - Knockin' on heavens door
TTITLE8=Flo - This time
TTITLE9=Flo - It ain't me babe
TTITLE10=Flo - Just let her go
TTITLE11=Flo - Wildwood flower
TTITLE12=Flo - High wire
TTITLE13=Flo - Traveling soldier
TTITLE14=Flo - Nothing else matter
TTITLE15=Flo - Ode to Billy Joe
TTITLE16=Flo - Son of a preacher man
EXTD=
EXTT0=
EXTT1=
EXTT2=
EXTT3=
EXTT4=
EXTT5=
EXTT6=
EXTT7=
EXTT8=
EXTT9=
EXTT10=
EXTT11=
EXTT12=
EXTT13=
EXTT14=
EXTT15=
EXTT16=
PLAYORDER=
